# xmcd CD database file
#
# Track frame offsets:
#	150
#	13190
#	34800
#	59486
#	84107
#	105367
#	126215
#	153350
#	166420
#	183960
#	203742
#	223526
#
# Disc length: 3274 seconds
#
# Revision: 0
# Processed by: cddbd v1.5.2PL0 Copyright (c) Steve Scherf et al.
# Submitted via: CDex 1.70beta2
#
DISCID=960cc80c
DTITLE=The Stockholm Jazz Trio - Jambangle
DYEAR=2007
DGENRE=Jazz
TTITLE0=Jambangle
TTITLE1=Jubilation
TTITLE2=Reflections
TTITLE3=Con Alma
TTITLE4=Dear Old Stocckholm
TTITLE5=Trinkle Tinkle
TTITLE6=Melancholy Albert
TTITLE7=Emigrantvisan ( The Emigrant Song )
TTITLE8=Un Poco Loco
TTITLE9=On The Sunny Side of The Street
TTITLE10=Letters
TTITLE11=Sandu
EXTD=YEAR: 2007
EXTT0=
EXTT1=
EXTT2=
EXTT3=
EXTT4=
EXTT5=
EXTT6=
EXTT7=
EXTT8=
EXTT9=
EXTT10=
EXTT11=
PLAYORDER=
